<svg width="24" height="24" viewBox="0 0 24 24" fill="none" xmlns="http://www.w3.org/2000/svg">
<path fill-rule="evenodd" clip-rule="evenodd" d="M18.9061 3.92178C17.8921 2.88578 16.4461 2.50478 15.0311 2.90678C14.9353 2.93753 14.8343 2.94869 14.7341 2.9396C14.6339 2.93051 14.5366 2.90135 14.4479 2.85386C14.3592 2.80637 14.281 2.74151 14.2178 2.66316C14.1547 2.58481 14.108 2.49456 14.0805 2.39779C14.053 2.30101 14.0452 2.19969 14.0577 2.09985C14.0701 2.00001 14.1025 1.9037 14.153 1.81665C14.2034 1.7296 14.2709 1.65358 14.3513 1.59313C14.4317 1.53269 14.5235 1.48904 14.6211 1.46478C16.5581 0.912784 18.5751 1.43978 19.9781 2.87278C20.0486 2.94284 20.1044 3.0262 20.1423 3.11801C20.1803 3.20982 20.1996 3.30826 20.1992 3.4076C20.1988 3.50695 20.1787 3.60523 20.14 3.69673C20.1013 3.78823 20.0448 3.87113 19.9738 3.94061C19.9028 4.0101 19.8187 4.06478 19.7264 4.10149C19.6341 4.1382 19.5354 4.1562 19.436 4.15445C19.3367 4.1527 19.2387 4.13123 19.1477 4.09129C19.0568 4.05134 18.9746 3.99373 18.9061 3.92178ZM11.1901 3.30778C10.9761 2.94078 10.3521 2.71778 9.71913 3.08078C9.08713 3.44078 8.97613 4.07778 9.18713 4.43778L11.7121 8.76978C11.766 8.85495 11.8022 8.9501 11.8185 9.04956C11.8347 9.14901 11.8308 9.25072 11.8069 9.34863C11.783 9.44653 11.7396 9.53861 11.6793 9.61937C11.6191 9.70013 11.5431 9.76791 11.4561 9.81867C11.369 9.86943 11.2726 9.90212 11.1726 9.91479C11.0726 9.92746 10.9711 9.91986 10.8742 9.89243C10.7772 9.865 10.6867 9.8183 10.6082 9.75514C10.5297 9.69197 10.4647 9.61363 10.4171 9.52478L7.89013 5.19378L7.04913 3.74978C6.83513 3.38278 6.21113 3.15978 5.57813 3.52278C4.94613 3.88278 4.83513 4.51978 5.04513 4.87978L8.83413 11.3768C8.88377 11.4619 8.91616 11.5559 8.92946 11.6535C8.94275 11.7512 8.93669 11.8504 8.91162 11.9457C8.88655 12.041 8.84296 12.1304 8.78333 12.2088C8.72371 12.2872 8.64923 12.3531 8.56413 12.4028C8.47903 12.4524 8.38499 12.4848 8.28738 12.4981C8.18976 12.5114 8.09048 12.5053 7.99521 12.4803C7.89994 12.4552 7.81054 12.4116 7.73211 12.352C7.65368 12.2924 7.58777 12.2179 7.53813 12.1328L5.85413 9.24478C5.64013 8.87778 5.01713 8.65478 4.38313 9.01778C3.75213 9.37778 3.64013 10.0138 3.85113 10.3748L7.63913 16.8718C9.24913 19.6308 13.2191 20.5258 16.5861 18.6018C19.9501 16.6788 21.1461 12.8378 19.5411 10.0848L17.0151 5.75378C16.8011 5.38678 16.1771 5.16378 15.5441 5.52578C14.9121 5.88678 14.8021 6.52278 15.0121 6.88378L16.6961 9.77078C16.7462 9.8564 16.7787 9.95109 16.7919 10.0494C16.8052 10.1477 16.7987 10.2476 16.7731 10.3434C16.7474 10.4392 16.703 10.5289 16.6424 10.6074C16.5818 10.6859 16.5063 10.7517 16.4201 10.8008C14.8771 11.6808 14.4051 13.3858 15.0801 14.5438C15.1298 14.6289 15.1622 14.7229 15.1755 14.8205C15.1888 14.9182 15.1827 15.0174 15.1576 15.1127C15.1325 15.208 15.089 15.2974 15.0293 15.3758C14.9697 15.4542 14.8952 15.5201 14.8101 15.5698C14.725 15.6194 14.631 15.6518 14.5334 15.6651C14.4358 15.6784 14.3365 15.6723 14.2412 15.6473C14.1459 15.6222 14.0565 15.5786 13.9781 15.519C13.8997 15.4594 13.8338 15.3849 13.7841 15.2998C12.7241 13.4828 13.3921 11.2368 15.0471 9.92278L11.1901 3.30778ZM13.9201 5.00978L12.4871 2.55378C11.7711 1.32578 10.1641 1.09978 8.97613 1.77978C8.61397 1.98483 8.30207 2.26803 8.06313 2.60878C7.26313 1.72778 5.88513 1.62078 4.83413 2.22078C3.64413 2.90178 3.03113 4.40278 3.75113 5.63678L4.75313 7.35578C4.36153 7.39894 3.98282 7.52143 3.64013 7.71578C2.44913 8.39578 1.83613 9.89778 2.55613 11.1318L6.34513 17.6288C8.45513 21.2488 13.4091 22.1468 17.3311 19.9048C21.2551 17.6628 22.9521 12.9558 20.8381 9.32978L18.3101 4.99978C17.5941 3.77178 15.9871 3.54578 14.7991 4.22478C14.4491 4.42478 14.1491 4.69578 13.9181 5.00978M4.41413 17.8598C4.49922 17.8101 4.59326 17.7777 4.69088 17.7644C4.7885 17.7511 4.88779 17.7571 4.98307 17.7822C5.07835 17.8073 5.16775 17.8509 5.24618 17.9105C5.3246 17.9702 5.39051 18.0447 5.44013 18.1298C6.26713 19.5478 7.53013 20.6198 9.09013 21.3158C9.2718 21.3969 9.4138 21.5469 9.48487 21.7328C9.55595 21.9186 9.55028 22.1251 9.46913 22.3068C9.38797 22.4885 9.23797 22.6305 9.05212 22.7015C8.86627 22.7726 8.6598 22.7669 8.47813 22.6858C6.66713 21.8768 5.14713 20.6058 4.14413 18.8858C4.09446 18.8007 4.06205 18.7067 4.04874 18.609C4.03543 18.5114 4.04149 18.4121 4.06656 18.3168C4.09163 18.2216 4.13523 18.1322 4.19487 18.0537C4.25451 17.9753 4.32901 17.9094 4.41413 17.8598Z" fill="#0090D3"/>
</svg>
