<svg width="84" height="84" viewBox="0 0 84 84" fill="none" xmlns="http://www.w3.org/2000/svg">
<path d="M29.61 52.71L24.675 57.645L19.88 52.85C16.7925 56.8047 14.8331 61.5216 14.21 66.5H21V73.5H7V70C7 53.06 19.04 38.955 35 35.7V28.7L7 17.5V10.5H77V17.5L49 28.7V35.7C64.96 38.955 77 53.06 77 70V73.5H63V66.5H69.79C69.1669 61.5216 67.2075 56.8047 64.12 52.85L59.325 57.645L54.39 52.71L59.185 47.88C55.2151 44.7957 50.488 42.8372 45.5 42.21V49H38.5V42.21C33.39 42.84 28.7 44.87 24.815 47.88L29.61 52.71ZM42 63C43.8565 63 45.637 63.7375 46.9497 65.0503C48.2625 66.363 49 68.1435 49 70C49 71.8565 48.2625 73.637 46.9497 74.9497C45.637 76.2625 43.8565 77 42 77C40.88 77 39.83 76.755 38.92 76.265L25.445 70L38.92 63.735C39.83 63.245 40.88 63 42 63Z" fill="#0090D3"/>
</svg>
